<svg width="92" height="91" viewBox="0 0 92 91" fill="none" xmlns="http://www.w3.org/2000/svg">
<g id="&#208;&#145;&#208;&#181;&#208;&#183;&#209;&#131;&#208;&#191;&#209;&#128;&#208;&#181;&#209;&#135;&#208;&#189;&#208;&#190;&#208;&#181; &#208;&#186;&#208;&#176;&#209;&#135;&#208;&#181;&#209;&#129;&#209;&#130;&#208;&#178;&#208;&#190; 1" clip-path="url(#clip0_1_415)">
<g id="&#208;&#161;&#208;&#187;&#208;&#190;&#208;&#185; x0020 1">
<path id="Vector" fill-rule="evenodd" clip-rule="evenodd" d="M57.217 4.94086C101.4 22.4558 108.017 54.6501 50.5316 86.605C25.3046 100.628 0.000457764 68.5279 0.000457764 44.3921C0.000457764 20.2547 13.0328 -12.5741 57.217 4.94086Z" fill="url(#paint0_linear_1_415)"/>
<g id="2805654199584">
<path id="Vector_2" fill-rule="evenodd" clip-rule="evenodd" d="M8.16895 29.8075L19.6834 13.897L31.1995 29.8075H8.16895Z" stroke="white" stroke-width="3.00008" stroke-miterlimit="22.9256" stroke-linecap="round" stroke-linejoin="round"/>
<path id="Vector_3" fill-rule="evenodd" clip-rule="evenodd" d="M31.1995 29.8075L42.714 13.897L54.2284 29.8075H31.1995Z" stroke="white" stroke-width="3.00008" stroke-miterlimit="22.9256" stroke-linecap="round" stroke-linejoin="round"/>
<path id="Vector_4" fill-rule="evenodd" clip-rule="evenodd" d="M54.2285 29.8075L65.7445 13.897L77.259 29.8075H54.2285Z" stroke="white" stroke-width="3.00008" stroke-miterlimit="22.9256" stroke-linecap="round" stroke-linejoin="round"/>
<path id="Vector_5" fill-rule="evenodd" clip-rule="evenodd" d="M19.6834 13.897L31.1995 29.8075L42.714 13.897H19.6834Z" stroke="white" stroke-width="3.00008" stroke-miterlimit="22.9256" stroke-linecap="round" stroke-linejoin="round"/>
<path id="Vector_6" fill-rule="evenodd" clip-rule="evenodd" d="M42.714 13.897L54.23 29.8075L65.7445 13.897H42.714Z" stroke="white" stroke-width="3.00008" stroke-miterlimit="22.9256" stroke-linecap="round" stroke-linejoin="round"/>
<path id="Vector_7" fill-rule="evenodd" clip-rule="evenodd" d="M31.1995 29.8076L42.714 72.9401L54.2284 29.8076H31.1995Z" stroke="white" stroke-width="3.00008" stroke-miterlimit="22.9256" stroke-linecap="round" stroke-linejoin="round"/>
<path id="Vector_8" fill-rule="evenodd" clip-rule="evenodd" d="M8.16895 29.8076L42.714 72.9401L31.1995 29.8076H8.16895Z" stroke="white" stroke-width="3.00008" stroke-miterlimit="22.9256" stroke-linecap="round" stroke-linejoin="round"/>
<path id="Vector_9" fill-rule="evenodd" clip-rule="evenodd" d="M77.259 29.8076L42.714 72.9401L54.2284 29.8076H77.259Z" stroke="white" stroke-width="3.00008" stroke-miterlimit="22.9256" stroke-linecap="round" stroke-linejoin="round"/>
</g>
</g>
</g>
<defs>
<linearGradient id="paint0_linear_1_415" x1="0.263998" y1="56.2685" x2="92" y2="56.2685" gradientUnits="userSpaceOnUse">
<stop stop-color="#F880B9"/>
<stop offset="1" stop-color="#FF98A6"/>
</linearGradient>
<clipPath id="clip0_1_415">
<rect width="92" height="90.0249" fill="white"/>
</clipPath>
</defs>
</svg>
