<svg width="92" height="91" viewBox="0 0 92 91" fill="none" xmlns="http://www.w3.org/2000/svg">
<g id="&#208;&#145;&#208;&#181;&#208;&#183;&#208;&#190;&#208;&#191;&#208;&#176;&#209;&#129;&#208;&#189;&#208;&#190;&#209;&#129;&#209;&#130;&#209;&#140; 1" clip-path="url(#clip0_1_427)">
<g id="&#208;&#161;&#208;&#187;&#208;&#190;&#208;&#185; x0020 1">
<path id="Vector" fill-rule="evenodd" clip-rule="evenodd" d="M57.2158 4.94106C101.399 22.4562 108.018 54.6498 50.5305 86.6055C25.3039 100.629 0 68.5292 0 44.3914C0 20.2535 13.0326 -12.5741 57.2158 4.94106Z" fill="url(#paint0_linear_1_427)"/>
<g id="2805218447392">
<path id="Vector_2" fill-rule="evenodd" clip-rule="evenodd" d="M40.5121 27.617C53.9472 26.1777 61.0726 19.1921 66.8088 12.6216C72.9851 27.4022 71.8712 53.288 57.1115 62.7266C43.0005 71.748 20.7587 67.205 20.7587 47.3724C20.7587 36.4632 27.9425 28.9645 40.5121 27.6191V27.617Z" stroke="white" stroke-width="3.00033" stroke-miterlimit="22.9256" stroke-linecap="round" stroke-linejoin="round"/>
<path id="Vector_3" d="M66.8088 12.6216C66.8088 12.6216 62.8373 34.2647 45.2637 46.5339C31.0401 56.4648 17.899 60.7909 11.5496 71.1974" stroke="white" stroke-width="3.00033" stroke-miterlimit="22.9256" stroke-linecap="round" stroke-linejoin="round"/>
<path id="Vector_4" d="M50.6495 30.147L52.0178 40.762" stroke="white" stroke-width="3.00033" stroke-miterlimit="22.9256" stroke-linecap="round" stroke-linejoin="round"/>
<path id="Vector_5" d="M49.9778 53.8072L38.0841 51.1978" stroke="white" stroke-width="3.00033" stroke-miterlimit="22.9256" stroke-linecap="round" stroke-linejoin="round"/>
</g>
</g>
</g>
<defs>
<linearGradient id="paint0_linear_1_427" x1="0.26354" y1="56.269" x2="91.9995" y2="56.269" gradientUnits="userSpaceOnUse">
<stop stop-color="#F880B9"/>
<stop offset="1" stop-color="#FF98A6"/>
</linearGradient>
<clipPath id="clip0_1_427">
<rect width="92" height="90.0249" fill="white"/>
</clipPath>
</defs>
</svg>
