<svg width="55" height="55" viewBox="0 0 55 55" fill="none" xmlns="http://www.w3.org/2000/svg">
<g id="&#208;&#148;&#208;&#190;&#209;&#129;&#209;&#130;&#208;&#176;&#208;&#178;&#208;&#186;&#208;&#176;2 1" clip-path="url(#clip0_1_578)">
<g id="&#208;&#161;&#208;&#187;&#208;&#190;&#208;&#185;_x0020_1">
<g id="_2480785807024">
<path id="Vector" fill-rule="evenodd" clip-rule="evenodd" d="M17.6368 39.5621L18.7488 40.6741L35.3036 26.3312C38.0991 23.6711 52.741 12.1026 49.0475 8.15135C45.0963 4.45864 33.5278 19.1006 30.8676 21.8953L16.5247 38.4501L17.6368 39.5621V39.5621Z" stroke="#CA3192" stroke-width="1.49961" stroke-miterlimit="22.9256" stroke-linecap="round" stroke-linejoin="round"/>
<path id="Vector_2" fill-rule="evenodd" clip-rule="evenodd" d="M42.934 19.416L49.4992 41.364C49.59 41.6679 49.6418 42.0383 49.4173 42.2628L48.2534 43.4276C48.0289 43.6521 47.622 43.6853 47.4364 43.4276L35.2017 26.4197L35.3038 26.3313C36.4872 25.2055 39.7941 22.4822 42.934 19.416V19.416Z" stroke="#CA3192" stroke-width="1.49961" stroke-miterlimit="22.9256" stroke-linecap="round" stroke-linejoin="round"/>
<path id="Vector_3" fill-rule="evenodd" clip-rule="evenodd" d="M47.5131 25.905C46.9457 25.3377 46.0177 25.3377 45.4503 25.905L45.0078 26.3476L45.9577 29.5232L47.5139 27.967C48.0813 27.3996 48.0813 26.4716 47.5139 25.9042L47.5131 25.905Z" stroke="#CA3192" stroke-width="1.49961" stroke-miterlimit="22.9256" stroke-linecap="round" stroke-linejoin="round"/>
<path id="Vector_4" fill-rule="evenodd" clip-rule="evenodd" d="M22.1967 44.1219L18.7488 40.674L22.7365 37.2188L24.4629 41.8557C24.5837 42.1791 24.5642 42.6427 24.3203 42.8875L23.085 44.1227C22.8411 44.3667 22.4407 44.3667 22.1967 44.1227V44.1219Z" stroke="#CA3192" stroke-width="1.49961" stroke-miterlimit="22.9256" stroke-linecap="round" stroke-linejoin="round"/>
<path id="Vector_5" fill-rule="evenodd" clip-rule="evenodd" d="M49.1553 31.3952C48.588 30.8279 47.6599 30.8279 47.0926 31.3952L46.65 31.8378L47.6 35.0134L49.1553 33.4572C49.7227 32.8898 49.7227 31.9618 49.1553 31.3944V31.3952Z" stroke="#CA3192" stroke-width="1.49961" stroke-miterlimit="22.9256" stroke-linecap="round" stroke-linejoin="round"/>
<path id="Vector_6" d="M45.335 45.9272L39.4214 51.84" stroke="#CA3192" stroke-width="1.49961" stroke-miterlimit="22.9256" stroke-linecap="round" stroke-linejoin="round"/>
<path id="Vector_7" d="M42.4699 43.062L38.6913 46.8406" stroke="#CA3192" stroke-width="1.49961" stroke-miterlimit="22.9256" stroke-linecap="round" stroke-linejoin="round"/>
<path id="Vector_8" d="M40.3509 39.3901L37.6138 42.1273" stroke="#CA3192" stroke-width="1.49961" stroke-miterlimit="22.9256" stroke-linecap="round" stroke-linejoin="round"/>
<path id="Vector_9" fill-rule="evenodd" clip-rule="evenodd" d="M37.7827 14.2653L15.8348 7.70013C15.5308 7.60935 15.1604 7.55748 14.9359 7.78199L13.7712 8.9459C13.5467 9.17041 13.5135 9.57729 13.7712 9.7629L30.7791 21.9976L30.8674 21.8955C31.9932 20.7122 34.7166 17.4053 37.7827 14.2653V14.2653Z" stroke="#CA3192" stroke-width="1.49961" stroke-miterlimit="22.9256" stroke-linecap="round" stroke-linejoin="round"/>
<path id="Vector_10" fill-rule="evenodd" clip-rule="evenodd" d="M31.2938 9.68561C31.8612 10.253 31.8612 11.181 31.2938 11.7484L30.8513 12.1909L27.6757 11.241L29.2318 9.6848C29.7992 9.11744 30.7272 9.11744 31.2946 9.6848L31.2938 9.68561Z" stroke="#CA3192" stroke-width="1.49961" stroke-miterlimit="22.9256" stroke-linecap="round" stroke-linejoin="round"/>
<path id="Vector_11" fill-rule="evenodd" clip-rule="evenodd" d="M13.0766 35.0011L16.5245 38.4491L19.9797 34.4613L15.3428 32.7349C15.0194 32.6142 14.5558 32.6336 14.311 32.8776L13.0758 34.1128C12.8318 34.3568 12.8318 34.7572 13.0758 35.0011H13.0766Z" stroke="#CA3192" stroke-width="1.49961" stroke-miterlimit="22.9256" stroke-linecap="round" stroke-linejoin="round"/>
<path id="Vector_12" fill-rule="evenodd" clip-rule="evenodd" d="M25.8037 8.04368C26.3711 8.61105 26.3711 9.53909 25.8037 10.1064L25.3612 10.549L22.1856 9.59907L23.7418 8.04368C24.3091 7.47632 25.2372 7.47632 25.8045 8.04368H25.8037Z" stroke="#CA3192" stroke-width="1.49961" stroke-miterlimit="22.9256" stroke-linecap="round" stroke-linejoin="round"/>
<path id="Vector_13" d="M11.2716 11.8633L5.35803 17.7768" stroke="#CA3192" stroke-width="1.49961" stroke-miterlimit="22.9256" stroke-linecap="round" stroke-linejoin="round"/>
<path id="Vector_14" d="M14.1366 14.7285L10.3572 18.5071" stroke="#CA3192" stroke-width="1.49961" stroke-miterlimit="22.9256" stroke-linecap="round" stroke-linejoin="round"/>
<path id="Vector_15" d="M17.808 16.8472L15.0709 19.5843" stroke="#CA3192" stroke-width="1.49961" stroke-miterlimit="22.9256" stroke-linecap="round" stroke-linejoin="round"/>
</g>
</g>
</g>
<defs>
<clipPath id="clip0_1_578">
<rect width="55" height="55" fill="white"/>
</clipPath>
</defs>
</svg>
