<svg width="92" height="91" viewBox="0 0 92 91" fill="none" xmlns="http://www.w3.org/2000/svg">
<g id="&#208;&#152;&#208;&#157;&#208;&#180;&#208;&#184;&#208;&#178;&#208;&#184;&#208;&#180;&#209;&#131;&#208;&#176;&#208;&#187;&#209;&#140;&#208;&#189;&#209;&#139;&#208;&#185; &#208;&#191;&#208;&#190;&#208;&#180;&#209;&#133;&#208;&#190;&#208;&#180; 1" clip-path="url(#clip0_1_397)">
<g id="&#208;&#161;&#208;&#187;&#208;&#190;&#208;&#185; x0020 1">
<path id="Vector" fill-rule="evenodd" clip-rule="evenodd" d="M57.2161 4.94129C101.399 22.4562 108.017 54.6495 50.5302 86.6053C25.3043 100.628 0 68.5286 0 44.3919C0 20.2552 13.0334 -12.5736 57.2161 4.94129Z" fill="url(#paint0_linear_1_397)"/>
<g id="2805075831664">
<path id="Vector_2" fill-rule="evenodd" clip-rule="evenodd" d="M28.5469 14.7202C34.8836 14.7202 40.4377 18.4094 43.5425 23.9456C46.6473 18.4094 52.2014 14.7202 58.5381 14.7202C68.2683 14.7202 76.1575 23.4183 76.1575 34.1486C76.1575 38.3676 74.9377 42.2718 72.8662 45.4574C72.8662 45.4574 68.5427 53.533 60.1891 61.073C51.8581 68.5928 43.5864 73.7679 43.5425 73.7964C43.4986 73.7691 35.2269 68.5928 26.8959 61.073C18.5435 53.533 14.2188 45.4574 14.2188 45.4574C12.1473 42.2718 10.9275 38.3676 10.9275 34.1486C10.9275 23.4183 18.8155 14.7202 28.5469 14.7202V14.7202Z" stroke="white" stroke-width="3.00055" stroke-miterlimit="22.9256" stroke-linecap="round" stroke-linejoin="round"/>
<path id="Vector_3" fill-rule="evenodd" clip-rule="evenodd" d="M36.5941 30.5723C39.5302 30.5723 42.1041 32.2815 43.5425 34.8471C44.9809 32.2815 47.5548 30.5723 50.491 30.5723C54.9998 30.5723 58.6557 34.6024 58.6557 39.5756C58.6557 41.5306 58.0903 43.3396 57.1306 44.816C57.1306 44.816 55.1269 48.5587 51.2559 52.0519C47.3956 55.5368 43.5627 57.9349 43.5425 57.948C43.5223 57.9349 39.6894 55.5368 35.8291 52.0519C31.9582 48.5575 29.9544 44.816 29.9544 44.816C28.9947 43.3396 28.4293 41.5306 28.4293 39.5756C28.4293 34.6036 32.0841 30.5723 36.5941 30.5723V30.5723Z" stroke="white" stroke-width="3.00055" stroke-miterlimit="22.9256" stroke-linecap="round" stroke-linejoin="round"/>
</g>
</g>
</g>
<defs>
<linearGradient id="paint0_linear_1_397" x1="0.263539" y1="56.2689" x2="91.9993" y2="56.2689" gradientUnits="userSpaceOnUse">
<stop stop-color="#F880B9"/>
<stop offset="1" stop-color="#FF98A6"/>
</linearGradient>
<clipPath id="clip0_1_397">
<rect width="92" height="90.0249" fill="white"/>
</clipPath>
</defs>
</svg>
