<svg width="92" height="91" viewBox="0 0 92 91" fill="none" xmlns="http://www.w3.org/2000/svg">
<g id="&#208;&#155;&#209;&#131;&#209;&#135;&#209;&#136;&#208;&#176;&#209;&#143; &#209;&#134;&#208;&#181;&#208;&#189;&#208;&#176; 1" clip-path="url(#clip0_1_375)">
<g id="&#208;&#161;&#208;&#187;&#208;&#190;&#208;&#185; x0020 1">
<path id="Vector" fill-rule="evenodd" clip-rule="evenodd" d="M57.2166 4.94053C101.4 22.4552 108.017 54.6489 50.5312 86.6046C25.3048 100.628 0.000488281 68.5276 0.000488281 44.3909C0.000488281 20.2541 13.0333 -12.575 57.2166 4.93972V4.94053Z" fill="url(#paint0_linear_1_375)"/>
<g id="2805654191712">
<path id="Vector_2" fill-rule="evenodd" clip-rule="evenodd" d="M46.5042 6.29443C55.0373 30.3678 69.3328 33.4643 69.3328 49.1395C69.3328 64.8154 56.6249 77.5233 40.949 77.5233C25.273 77.5233 12.5652 64.8154 12.5652 49.1395C12.5652 42.1997 15.3497 33.5675 22.8192 27.7702C26.7388 33.3814 32.6686 31.5606 33.594 29.1758C35.5912 24.0261 34.5967 11.4938 46.5042 6.29443V6.29443Z" stroke="white" stroke-width="2.99951" stroke-miterlimit="22.9256" stroke-linecap="round" stroke-linejoin="round"/>
<path id="Vector_3" fill-rule="evenodd" clip-rule="evenodd" d="M35.4303 37.7065H43.0363C46.3929 37.7065 49.1392 40.4529 49.1392 43.8094V45.2321C49.1392 48.5886 46.3929 51.335 43.0363 51.335H35.4303V37.7074V37.7065Z" stroke="white" stroke-width="2.99951" stroke-miterlimit="22.9256" stroke-linecap="round" stroke-linejoin="round"/>
<path id="Vector_4" d="M35.4303 37.7065V66.1886" stroke="white" stroke-width="2.99951" stroke-miterlimit="22.9256" stroke-linecap="round" stroke-linejoin="round"/>
<path id="Vector_5" d="M35.4303 51.334H31.7659" stroke="white" stroke-width="2.99951" stroke-miterlimit="22.9256" stroke-linecap="round" stroke-linejoin="round"/>
<path id="Vector_6" d="M47.0486 57.502H31.7659" stroke="white" stroke-width="2.99951" stroke-miterlimit="22.9256" stroke-linecap="round" stroke-linejoin="round"/>
</g>
</g>
</g>
<defs>
<linearGradient id="paint0_linear_1_375" x1="0.264027" y1="56.268" x2="91.9998" y2="56.268" gradientUnits="userSpaceOnUse">
<stop stop-color="#F880B9"/>
<stop offset="1" stop-color="#FF98A6"/>
</linearGradient>
<clipPath id="clip0_1_375">
<rect width="92" height="90.0249" fill="white"/>
</clipPath>
</defs>
</svg>
