<svg width="55" height="55" viewBox="0 0 55 55" fill="none" xmlns="http://www.w3.org/2000/svg">
<g id="&#208;&#158;&#208;&#191;&#208;&#187;&#208;&#176;&#209;&#130;&#208;&#176;2 1" clip-path="url(#clip0_1_616)">
<g id="&#208;&#161;&#208;&#187;&#208;&#190;&#208;&#185;_x0020_1">
<path id="Vector" fill-rule="evenodd" clip-rule="evenodd" d="M9.52444 22.5025L14.42 9.05276C14.8609 7.84185 16.2112 7.21207 17.4221 7.653L47.8408 18.7246C49.0517 19.1656 49.6815 20.5159 49.2405 21.7268L42.6746 39.7665V24.8449C42.6746 23.5561 41.6209 22.5025 40.3322 22.5025H9.52444V22.5025Z" stroke="#CA3192" stroke-width="1.49961" stroke-miterlimit="22.9256" stroke-linecap="round" stroke-linejoin="round"/>
<path id="Vector_2" d="M16.7 18.0826L23.1062 20.4143C23.526 20.5671 23.9901 20.3506 24.1429 19.9308L25.4963 16.2125C25.6491 15.7927 25.4326 15.3285 25.0128 15.1757L18.6067 12.8441C18.1869 12.6913 17.7227 12.9077 17.5699 13.3275L16.2166 17.0459C16.0638 17.4657 16.2802 17.9298 16.7 18.0826Z" stroke="#CA3192" stroke-width="1.49961" stroke-miterlimit="22.9256" stroke-linecap="round" stroke-linejoin="round"/>
<path id="Vector_3" d="M40.3318 22.5024H7.96062C6.66695 22.5024 5.61823 23.5512 5.61823 24.8448V45.145C5.61823 46.4387 6.66695 47.4874 7.96062 47.4874H40.3318C41.6255 47.4874 42.6742 46.4387 42.6742 45.145V24.8448C42.6742 23.5512 41.6255 22.5024 40.3318 22.5024Z" stroke="#CA3192" stroke-width="1.49961" stroke-miterlimit="22.9256" stroke-linecap="round" stroke-linejoin="round"/>
<path id="Vector_4" d="M42.6742 27.1846H5.61823V33.2505H42.6742V27.1846Z" stroke="#CA3192" stroke-width="1.49961" stroke-miterlimit="22.9256" stroke-linecap="round" stroke-linejoin="round"/>
<path id="Vector_5" d="M37.4436 37.4395H30.6263C30.1796 37.4395 29.8174 37.8016 29.8174 38.2483V42.2053C29.8174 42.652 30.1796 43.0142 30.6263 43.0142H37.4436C37.8903 43.0142 38.2525 42.652 38.2525 42.2053V38.2483C38.2525 37.8016 37.8903 37.4395 37.4436 37.4395Z" stroke="#CA3192" stroke-width="1.49961" stroke-miterlimit="22.9256" stroke-linecap="round" stroke-linejoin="round"/>
</g>
</g>
<defs>
<clipPath id="clip0_1_616">
<rect width="55" height="55" fill="white"/>
</clipPath>
</defs>
</svg>
