<svg width="92" height="91" viewBox="0 0 92 91" fill="none" xmlns="http://www.w3.org/2000/svg">
<g id="&#208;&#159;&#209;&#128;&#208;&#190;&#209;&#129;&#209;&#130;&#208;&#190;&#209;&#130;&#208;&#176; 1" clip-path="url(#clip0_1_444)">
<g id="&#208;&#161;&#208;&#187;&#208;&#190;&#208;&#185; x0020 1">
<path id="Vector" fill-rule="evenodd" clip-rule="evenodd" d="M57.2166 4.94148C101.4 22.4563 108.017 54.6498 50.5309 86.6067C25.3036 100.629 0 68.5307 0 44.3932C0 20.2557 13.0335 -12.5714 57.2166 4.94148Z" fill="url(#paint0_linear_1_444)"/>
<g id="2804959420000">
<path id="Vector_2" fill-rule="evenodd" clip-rule="evenodd" d="M75.22 64.7591C69.876 74.0442 56.4646 73.6243 51.5329 64.3488C49.924 61.3161 46.2214 59.8427 42.8967 59.8427C38.9193 59.8427 35.9648 61.4287 34.0066 64.803C28.8001 73.7789 15.7437 73.7427 10.5772 64.7648C5.07866 55.2602 12.3579 44.3528 22.937 44.4616C25.8876 44.4941 29.0864 42.5454 30.9988 39.2341C32.7355 36.2243 32.9665 32.8576 31.8652 30.3612C31.495 29.5234 30.9491 28.7638 30.5655 27.9164C26.5156 19.0168 32.9951 8.90333 42.7325 8.78309C52.615 8.6743 59.3064 18.8851 55.2374 27.8877C54.9225 28.5901 54.556 29.1607 54.2011 29.8039C52.7983 32.3385 52.9223 35.9915 54.7927 39.2303C59.1041 46.6984 64.1275 42.7993 70.1509 46.2003C76.6762 49.8876 78.9741 58.2643 75.2181 64.7534L75.22 64.7591Z" stroke="white" stroke-width="2.99916" stroke-miterlimit="22.9256"/>
<path id="Vector_3" fill-rule="evenodd" clip-rule="evenodd" d="M22.3053 49.4736C27.0118 49.4736 30.827 53.2888 30.827 57.9953C30.827 62.7018 27.0118 66.517 22.3053 66.517C17.5988 66.517 13.7836 62.7018 13.7836 57.9953C13.7836 53.2888 17.5988 49.4736 22.3053 49.4736Z" stroke="white" stroke-width="2.99916" stroke-miterlimit="22.9256"/>
<path id="Vector_4" fill-rule="evenodd" clip-rule="evenodd" d="M50.2771 18.0663C52.6303 22.1411 51.2333 27.3533 47.1585 29.7066C43.0837 32.0598 37.8715 30.6628 35.5182 26.588C33.165 22.5132 34.562 17.301 38.6368 14.9477C42.7116 12.5945 47.9238 13.9915 50.2771 18.0663Z" stroke="white" stroke-width="2.99916" stroke-miterlimit="22.9256"/>
<path id="Vector_5" fill-rule="evenodd" clip-rule="evenodd" d="M63.49 49.4736C68.1965 49.4736 72.0117 53.2888 72.0117 57.9953C72.0117 62.7018 68.1965 66.517 63.49 66.517C58.7835 66.517 54.9683 62.7018 54.9683 57.9953C54.9683 53.2888 58.7835 49.4736 63.49 49.4736Z" stroke="white" stroke-width="2.99916" stroke-miterlimit="22.9256"/>
<path id="Vector_6" fill-rule="evenodd" clip-rule="evenodd" d="M70.8704 53.7333C73.2236 57.8081 71.8266 63.0203 67.7518 65.3736C63.677 67.7268 58.4648 66.3298 56.1115 62.255C53.7583 58.1802 55.1553 52.968 59.2301 50.6147C63.3049 48.2615 68.5171 49.6585 70.8704 53.7333Z" stroke="white" stroke-width="2.99916" stroke-miterlimit="22.9256"/>
<path id="Vector_7" fill-rule="evenodd" clip-rule="evenodd" d="M51.1645 41.6484C53.8117 46.2328 52.241 52.0958 47.6566 54.7449C43.0723 57.3921 37.2092 55.8213 34.5601 51.237C31.9129 46.6526 33.4837 40.7896 38.068 38.1405C42.6524 35.4933 48.5155 37.0641 51.1645 41.6484V41.6484Z" stroke="white" stroke-width="2.99916" stroke-miterlimit="22.9256"/>
</g>
</g>
</g>
<defs>
<linearGradient id="paint0_linear_1_444" x1="0.26354" y1="56.27" x2="91.9995" y2="56.27" gradientUnits="userSpaceOnUse">
<stop stop-color="#F880B9"/>
<stop offset="1" stop-color="#FF98A6"/>
</linearGradient>
<clipPath id="clip0_1_444">
<rect width="92" height="90.0249" fill="white"/>
</clipPath>
</defs>
</svg>
