<svg width="92" height="91" viewBox="0 0 92 91" fill="none" xmlns="http://www.w3.org/2000/svg">
<g id="&#208;&#160;&#208;&#176;&#208;&#183;&#208;&#189;&#208;&#190;&#208;&#190;&#208;&#177;&#209;&#128;&#208;&#176;&#208;&#183;&#208;&#184;&#208;&#181; 1" clip-path="url(#clip0_1_384)">
<g id="&#208;&#161;&#208;&#187;&#208;&#190;&#208;&#185; x0020 1">
<path id="Vector" fill-rule="evenodd" clip-rule="evenodd" d="M57.2168 4.94147C101.4 22.4566 108.018 54.6505 50.531 86.6061C25.3042 100.629 0.000289917 68.5295 0.000289917 44.3926C0.000289917 20.2557 13.0336 -12.5727 57.2168 4.94147Z" fill="url(#paint0_linear_1_384)"/>
<g id="2805218409504">
<path id="Vector_2" d="M31.0231 28.4355C34.26 28.4355 36.8841 25.8114 36.8841 22.5744C36.8841 19.3375 34.26 16.7134 31.0231 16.7134C27.7861 16.7134 25.162 19.3375 25.162 22.5744C25.162 25.8114 27.7861 28.4355 31.0231 28.4355Z" stroke="white" stroke-width="2.99995" stroke-miterlimit="22.9256" stroke-linecap="round" stroke-linejoin="round"/>
<path id="Vector_3" d="M14.9031 22.5742H25.161" stroke="white" stroke-width="2.99995" stroke-miterlimit="22.9256" stroke-linecap="round" stroke-linejoin="round"/>
<path id="Vector_4" d="M42.3499 22.5742H66.9932" stroke="white" stroke-width="2.99995" stroke-miterlimit="22.9256" stroke-linecap="round" stroke-linejoin="round"/>
<path id="Vector_5" d="M52.5807 47.8164C55.8177 47.8164 58.4418 45.1923 58.4418 41.9553C58.4418 38.7183 55.8177 36.0942 52.5807 36.0942C49.3437 36.0942 46.7196 38.7183 46.7196 41.9553C46.7196 45.1923 49.3437 47.8164 52.5807 47.8164Z" stroke="white" stroke-width="2.99995" stroke-miterlimit="22.9256" stroke-linecap="round" stroke-linejoin="round"/>
<path id="Vector_6" d="M66.9932 41.9551H58.4428" stroke="white" stroke-width="2.99995" stroke-miterlimit="22.9256" stroke-linecap="round" stroke-linejoin="round"/>
<path id="Vector_7" d="M41.1938 41.9551H14.9031" stroke="white" stroke-width="2.99995" stroke-miterlimit="22.9256" stroke-linecap="round" stroke-linejoin="round"/>
<path id="Vector_8" d="M29.2295 67.1049C32.4665 67.1049 35.0906 64.4809 35.0906 61.2439C35.0906 58.0069 32.4665 55.3828 29.2295 55.3828C25.9925 55.3828 23.3684 58.0069 23.3684 61.2439C23.3684 64.4809 25.9925 67.1049 29.2295 67.1049Z" stroke="white" stroke-width="2.99995" stroke-miterlimit="22.9256" stroke-linecap="round" stroke-linejoin="round"/>
<path id="Vector_9" d="M14.9031 61.2441H23.3684" stroke="white" stroke-width="2.99995" stroke-miterlimit="22.9256" stroke-linecap="round" stroke-linejoin="round"/>
<path id="Vector_10" d="M40.7625 61.2441H66.9932" stroke="white" stroke-width="2.99995" stroke-miterlimit="22.9256" stroke-linecap="round" stroke-linejoin="round"/>
</g>
</g>
</g>
<defs>
<linearGradient id="paint0_linear_1_384" x1="0.263831" y1="56.2697" x2="92.0001" y2="56.2697" gradientUnits="userSpaceOnUse">
<stop stop-color="#F880B9"/>
<stop offset="1" stop-color="#FF98A6"/>
</linearGradient>
<clipPath id="clip0_1_384">
<rect width="92" height="90.0249" fill="white"/>
</clipPath>
</defs>
</svg>
