<svg width="92" height="91" viewBox="0 0 92 91" fill="none" xmlns="http://www.w3.org/2000/svg">
<g id="&#208;&#161;&#208;&#186;&#208;&#184;&#208;&#180;&#208;&#186;&#208;&#184; &#208;&#186;&#208;&#187;&#208;&#184;&#208;&#181;&#208;&#189;&#209;&#130;&#208;&#176;&#208;&#188; 1" clip-path="url(#clip0_1_403)">
<g id="&#208;&#161;&#208;&#187;&#208;&#190;&#208;&#185; x0020 1">
<path id="Vector" fill-rule="evenodd" clip-rule="evenodd" d="M57.2177 4.9407C101.401 22.4555 108.018 54.6495 50.5325 86.6046C25.3063 100.627 0.0022583 68.5276 0.0022583 44.3903C0.0022583 20.253 13.0357 -12.5755 57.2191 4.93934L57.2177 4.9407Z" fill="url(#paint0_linear_1_403)"/>
<g id="2805089743920">
<path id="Vector_2" fill-rule="evenodd" clip-rule="evenodd" d="M57.969 19.0527L63.3483 24.432L60.5495 41.2222L38.7867 62.9851C37.171 64.6008 34.5263 64.6008 32.9106 62.9851L14.038 44.1125C12.4223 42.4968 12.4223 39.8522 14.038 38.2365L35.8009 16.4736L52.5911 13.6748L57.9704 19.0541L57.969 19.0527Z" stroke="white" stroke-width="2.99912" stroke-miterlimit="22.9256" stroke-linecap="round" stroke-linejoin="round"/>
<path id="Vector_3" d="M62.9744 14.0474L52.9473 24.0745" stroke="white" stroke-width="2.99912" stroke-miterlimit="22.9256" stroke-linecap="round" stroke-linejoin="round"/>
<path id="Vector_4" d="M50.0011 21.1284L55.8934 27.0208" stroke="white" stroke-width="2.99912" stroke-miterlimit="22.9256" stroke-linecap="round" stroke-linejoin="round"/>
<path id="Vector_5" fill-rule="evenodd" clip-rule="evenodd" d="M62.9731 26.6753L69.0715 35.2123V65.9898C69.0715 68.2755 67.202 70.1451 64.9163 70.1451H38.2258C35.9401 70.1451 34.0706 68.2755 34.0706 65.9898V63.801C35.6126 64.5256 37.5162 64.254 38.7853 62.9849L60.5482 41.2221L62.9731 26.6753V26.6753Z" stroke="white" stroke-width="2.99912" stroke-miterlimit="22.9256" stroke-linecap="round" stroke-linejoin="round"/>
<path id="Vector_6" fill-rule="evenodd" clip-rule="evenodd" d="M43.032 27.748L47.4028 32.1189C49.3324 34.0485 49.3324 37.2048 47.4028 39.133L46.5854 39.9504C44.6559 41.88 41.4995 41.88 39.5713 39.9504L35.2005 35.5796L43.032 27.748V27.748Z" stroke="white" stroke-width="2.99912" stroke-miterlimit="22.9256" stroke-linecap="round" stroke-linejoin="round"/>
<path id="Vector_7" d="M43.032 27.748L26.6634 44.1179" stroke="white" stroke-width="2.99912" stroke-miterlimit="22.9256" stroke-linecap="round" stroke-linejoin="round"/>
<path id="Vector_8" d="M35.2005 35.5811L33.0935 33.4741" stroke="white" stroke-width="2.99912" stroke-miterlimit="22.9256" stroke-linecap="round" stroke-linejoin="round"/>
<path id="Vector_9" d="M38.3322 45.8022L29.5496 37.0195" stroke="white" stroke-width="2.99912" stroke-miterlimit="22.9256" stroke-linecap="round" stroke-linejoin="round"/>
</g>
</g>
</g>
<defs>
<linearGradient id="paint0_linear_1_403" x1="0.265796" y1="56.2677" x2="92.0011" y2="56.2677" gradientUnits="userSpaceOnUse">
<stop stop-color="#F880B9"/>
<stop offset="1" stop-color="#FF98A6"/>
</linearGradient>
<clipPath id="clip0_1_403">
<rect width="92" height="90.0249" fill="white"/>
</clipPath>
</defs>
</svg>
