<svg width="55" height="55" viewBox="0 0 55 55" fill="none" xmlns="http://www.w3.org/2000/svg">
<g id="&#208;&#161;&#209;&#128;&#208;&#190;&#208;&#186;-&#208;&#191;&#209;&#128;&#208;&#190;&#208;&#184;&#208;&#183;&#208;&#178;&#208;&#190;&#208;&#180;&#209;&#129;&#209;&#130;&#208;&#178;&#208;&#176;2 1" clip-path="url(#clip0_1_534)">
<g id="&#208;&#161;&#208;&#187;&#208;&#190;&#208;&#185;_x0020_1">
<path id="Vector" d="M42.8251 14.3786C46.287 18.1088 48.4041 23.1058 48.4041 28.5965C48.4041 40.1428 39.0439 49.5031 27.4976 49.5031C15.9513 49.5031 6.591 40.1428 6.591 28.5965C6.591 17.0502 15.9513 7.68994 27.4976 7.68994C28.5083 7.68994 29.5021 7.76127 30.4747 7.89987" stroke="#CA3192" stroke-width="1.49968" stroke-miterlimit="22.9256" stroke-linecap="round" stroke-linejoin="round"/>
<path id="Vector_2" d="M18.9468 15.8333C21.3906 14.1928 24.3321 13.2363 27.4965 13.2363C35.9797 13.2363 42.8573 20.1139 42.8573 28.5971C42.8573 37.0803 35.9797 43.9579 27.4965 43.9579C19.0133 43.9579 12.1357 37.0803 12.1357 28.5971C12.1357 25.4238 13.0979 22.4742 14.7473 20.0263M16.2923 18.0891C16.3984 17.9764 16.5062 17.8646 16.6157 17.7543C16.7397 17.6303 16.8653 17.5079 16.9934 17.388L16.2923 18.0891Z" stroke="#CA3192" stroke-width="1.49968" stroke-miterlimit="22.9256" stroke-linecap="round" stroke-linejoin="round"/>
<path id="Vector_3" d="M27.4967 30.5572C28.5796 30.5572 29.4574 29.6793 29.4574 28.5965C29.4574 27.5136 28.5796 26.6357 27.4967 26.6357C26.4138 26.6357 25.5359 27.5136 25.5359 28.5965C25.5359 29.6793 26.4138 30.5572 27.4967 30.5572Z" stroke="#CA3192" stroke-width="1.49968" stroke-miterlimit="22.9256" stroke-linecap="round" stroke-linejoin="round"/>
<path id="Vector_4" d="M22.3766 23.6309L26.0322 27.2873" stroke="#CA3192" stroke-width="1.49968" stroke-miterlimit="22.9256" stroke-linecap="round" stroke-linejoin="round"/>
<path id="Vector_5" d="M28.8964 27.2226L35.4052 20.7139" stroke="#CA3192" stroke-width="1.49968" stroke-miterlimit="22.9256" stroke-linecap="round" stroke-linejoin="round"/>
<path id="Vector_6" d="M27.4606 16.2363V17.8542" stroke="#CA3192" stroke-width="1.49968" stroke-miterlimit="22.9256" stroke-linecap="round" stroke-linejoin="round"/>
<path id="Vector_7" d="M15.1013 28.5957H16.7192" stroke="#CA3192" stroke-width="1.49968" stroke-miterlimit="22.9256" stroke-linecap="round" stroke-linejoin="round"/>
<path id="Vector_8" d="M27.4606 39.3379V40.9549" stroke="#CA3192" stroke-width="1.49968" stroke-miterlimit="22.9256" stroke-linecap="round" stroke-linejoin="round"/>
<path id="Vector_9" d="M38.2032 28.5957H39.8202" stroke="#CA3192" stroke-width="1.49968" stroke-miterlimit="22.9256" stroke-linecap="round" stroke-linejoin="round"/>
<path id="Vector_10" d="M42.7601 17.5241V14.3086H45.9756" stroke="#CA3192" stroke-width="1.49968" stroke-miterlimit="22.9256" stroke-linecap="round" stroke-linejoin="round"/>
</g>
</g>
<defs>
<clipPath id="clip0_1_534">
<rect width="55" height="55" fill="white"/>
</clipPath>
</defs>
</svg>
