<svg width="92" height="91" viewBox="0 0 92 91" fill="none" xmlns="http://www.w3.org/2000/svg">
<g id="&#208;&#163;&#208;&#189;&#208;&#184;&#208;&#186;&#208;&#176;&#208;&#187;&#209;&#140;&#208;&#189;&#208;&#190;&#209;&#129;&#209;&#130;&#209;&#140; 1" clip-path="url(#clip0_1_435)">
<g id="&#208;&#161;&#208;&#187;&#208;&#190;&#208;&#185; x0020 1">
<path id="Vector" fill-rule="evenodd" clip-rule="evenodd" d="M57.2152 4.94186C101.399 22.4559 108.015 54.651 50.5303 86.6063C25.3037 100.629 0 68.5302 0 44.3926C0 20.2568 13.0335 -12.5722 57.2152 4.94186Z" fill="url(#paint0_linear_1_435)"/>
<g id="2805082566560">
<path id="Vector_2" d="M23.313 17.5636C23.313 17.5636 39.0797 6.98305 59.136 17.7019" stroke="white" stroke-width="2.99886" stroke-miterlimit="22.9256" stroke-linecap="round" stroke-linejoin="round"/>
<path id="Vector_3" d="M14.9456 33.5383C14.9456 33.5383 22.8298 20.883 40.3946 20.468C57.9594 20.0531 66.9501 33.3317 66.9501 33.3317" stroke="white" stroke-width="2.99886" stroke-miterlimit="22.9256" stroke-linecap="round" stroke-linejoin="round"/>
<path id="Vector_4" d="M19.7184 61.6858C19.7184 61.6858 13.7707 48.0623 20.755 38.035C27.7392 28.0077 39.288 26.6928 46.3773 28.3194C53.4649 29.9442 61.7167 36.2911 63.6322 43.8094C64.4324 46.9505 64.8368 49.8219 64.259 52.0473C63.4694 55.092 61.1775 56.9882 58.5914 57.2596C50.8893 58.072 48.8075 52.3589 48.4083 48.2846C48.1562 45.7073 44.5967 40.4057 37.6667 43.0022C32.9884 44.7566 30.749 50.1738 35.2767 59.2644C38.4896 65.7146 43.8858 69.5683 50.1452 70.9165" stroke="white" stroke-width="2.99886" stroke-miterlimit="22.9256" stroke-linecap="round" stroke-linejoin="round"/>
<path id="Vector_5" d="M56.8195 50.0317C56.8195 50.0317 55.3331 33.9534 40.4296 35.0249C25.5261 36.0964 24.2812 50.135 25.4578 54.8378C26.6327 59.5407 28.9508 65.5567 34.3103 70.3279" stroke="white" stroke-width="2.99886" stroke-miterlimit="22.9256" stroke-linecap="round" stroke-linejoin="round"/>
<path id="Vector_6" d="M40.9146 49.8252C40.9146 49.8252 42.1244 66.8717 59.621 64.2787" stroke="white" stroke-width="2.99886" stroke-miterlimit="22.9256" stroke-linecap="round" stroke-linejoin="round"/>
</g>
</g>
</g>
<defs>
<linearGradient id="paint0_linear_1_435" x1="0.263536" y1="56.2699" x2="91.9984" y2="56.2699" gradientUnits="userSpaceOnUse">
<stop stop-color="#F880B9"/>
<stop offset="1" stop-color="#FF98A6"/>
</linearGradient>
<clipPath id="clip0_1_435">
<rect width="92" height="90.0249" fill="white"/>
</clipPath>
</defs>
</svg>
