<svg width="31" height="30" viewBox="0 0 31 30" fill="none" xmlns="http://www.w3.org/2000/svg">
<path fill-rule="evenodd" clip-rule="evenodd" d="M19.0668 1.64664C33.7903 7.48332 35.9958 18.2115 16.8387 28.8605C8.43243 33.5334 0 22.8366 0 14.7932C0 6.74988 4.34327 -4.19003 19.0668 1.64664Z" fill="url(#paint0_linear_1_949)"/>
<path fill-rule="evenodd" clip-rule="evenodd" d="M9.51287 4.90576C11.6245 4.90576 13.4754 6.13516 14.51 7.98005C15.5447 6.13516 17.3955 4.90576 19.5072 4.90576C22.7497 4.90576 25.3787 7.80431 25.3787 11.3801C25.3787 12.786 24.9722 14.0871 24.2819 15.1486C24.2819 15.1486 22.8411 17.8398 20.0574 20.3524C17.2811 22.8583 14.5247 24.5829 14.51 24.5924C14.4954 24.5833 11.7389 22.8583 8.96269 20.3524C6.17932 17.8398 4.73816 15.1486 4.73816 15.1486C4.04786 14.0871 3.64136 12.786 3.64136 11.3801C3.64136 7.80431 6.26996 4.90576 9.51287 4.90576V4.90576Z" stroke="white" stroke-miterlimit="22.9256" stroke-linecap="round" stroke-linejoin="round"/>
<path fill-rule="evenodd" clip-rule="evenodd" d="M12.1943 10.1885C13.1728 10.1885 14.0305 10.7581 14.5099 11.613C14.9892 10.7581 15.8469 10.1885 16.8254 10.1885C18.3279 10.1885 19.5462 11.5315 19.5462 13.1887C19.5462 13.8403 19.3578 14.4431 19.038 14.9351C19.038 14.9351 18.3702 16.1823 17.0803 17.3464C15.7939 18.5077 14.5166 19.3068 14.5099 19.3112C14.5031 19.3068 13.2258 18.5077 11.9394 17.3464C10.6495 16.1819 9.98174 14.9351 9.98174 14.9351C9.66192 14.4431 9.47351 13.8403 9.47351 13.1887C9.47351 11.5319 10.6914 10.1885 12.1943 10.1885V10.1885Z" stroke="white" stroke-miterlimit="22.9256" stroke-linecap="round" stroke-linejoin="round"/>
<defs>
<linearGradient id="paint0_linear_1_949" x1="0.0878221" y1="18.7511" x2="30.6579" y2="18.7511" gradientUnits="userSpaceOnUse">
<stop stop-color="#F880B9"/>
<stop offset="1" stop-color="#FF98A6"/>
</linearGradient>
</defs>
</svg>
