<svg width="31" height="30" viewBox="0 0 31 30" fill="none" xmlns="http://www.w3.org/2000/svg">
<path fill-rule="evenodd" clip-rule="evenodd" d="M19.0671 1.64639C33.7908 7.48309 35.9958 18.2114 16.8391 28.8608C8.43227 33.5336 0 22.8371 0 14.7934C0 6.74977 4.34334 -4.18967 19.0671 1.64639Z" fill="url(#paint0_linear_1_990)"/>
<path fill-rule="evenodd" clip-rule="evenodd" d="M25.0666 21.5807C23.2858 24.6749 18.8165 24.535 17.173 21.444C16.6369 20.4333 15.403 19.9423 14.2951 19.9423C12.9696 19.9423 11.9851 20.4708 11.3325 21.5953C9.59747 24.5865 5.24649 24.5744 3.52481 21.5826C1.69245 18.4153 4.11821 14.7804 7.64363 14.8167C8.62691 14.8275 9.69287 14.1781 10.3302 13.0746C10.9089 12.0717 10.9859 10.9497 10.6189 10.1178C10.4955 9.83861 10.3136 9.58547 10.1858 9.30308C8.83616 6.33735 10.9954 2.96711 14.2404 2.92705C17.5336 2.89079 19.7635 6.29347 18.4075 9.29354C18.3026 9.5276 18.1805 9.71776 18.0622 9.9321C17.5947 10.7767 17.636 11.9941 18.2593 13.0734C19.6961 15.5621 21.3701 14.2627 23.3773 15.3961C25.5519 16.6249 26.3176 19.4163 25.066 21.5788L25.0666 21.5807Z" stroke="white" stroke-miterlimit="22.9256"/>
<path fill-rule="evenodd" clip-rule="evenodd" d="M7.43306 17.4863C9.00147 17.4863 10.2729 18.7577 10.2729 20.3261C10.2729 21.8945 9.00147 23.1659 7.43306 23.1659C5.86465 23.1659 4.59326 21.8945 4.59326 20.3261C4.59326 18.7577 5.86465 17.4863 7.43306 17.4863Z" stroke="white" stroke-miterlimit="22.9256"/>
<path fill-rule="evenodd" clip-rule="evenodd" d="M16.7543 6.01977C17.5385 7.37766 17.0729 9.11461 15.715 9.89882C14.3571 10.683 12.6202 10.2175 11.836 8.85957C11.0518 7.50168 11.5173 5.76473 12.8752 4.98052C14.2331 4.19632 15.9701 4.66188 16.7543 6.01977Z" stroke="white" stroke-miterlimit="22.9256"/>
<path fill-rule="evenodd" clip-rule="evenodd" d="M21.1574 17.4863C22.7258 17.4863 23.9972 18.7577 23.9972 20.3261C23.9972 21.8945 22.7258 23.1659 21.1574 23.1659C19.589 23.1659 18.3176 21.8945 18.3176 20.3261C18.3176 18.7577 19.589 17.4863 21.1574 17.4863Z" stroke="white" stroke-miterlimit="22.9256"/>
<path fill-rule="evenodd" clip-rule="evenodd" d="M23.6168 18.9055C24.401 20.2634 23.9355 22.0004 22.5776 22.7846C21.2197 23.5688 19.4827 23.1032 18.6985 21.7453C17.9143 20.3874 18.3799 18.6505 19.7378 17.8663C21.0957 17.0821 22.8326 17.5476 23.6168 18.9055Z" stroke="white" stroke-miterlimit="22.9256"/>
<path fill-rule="evenodd" clip-rule="evenodd" d="M17.0507 13.8788C17.9329 15.4065 17.4094 17.3603 15.8817 18.2431C14.354 19.1253 12.4002 18.6018 11.5174 17.0741C10.6353 15.5464 11.1587 13.5926 12.6864 12.7098C14.2141 11.8276 16.1679 12.3511 17.0507 13.8788V13.8788Z" stroke="white" stroke-miterlimit="22.9256"/>
<defs>
<linearGradient id="paint0_linear_1_990" x1="0.087823" y1="18.7513" x2="30.6583" y2="18.7513" gradientUnits="userSpaceOnUse">
<stop stop-color="#F880B9"/>
<stop offset="1" stop-color="#FF98A6"/>
</linearGradient>
</defs>
</svg>
