<svg width="30" height="30" viewBox="0 0 30 30" fill="none" xmlns="http://www.w3.org/2000/svg">
<g clip-path="url(#clip0_1_877)">
<path d="M17.8711 15C17.8711 16.5857 16.5857 17.8711 15 17.8711C13.4143 17.8711 12.1289 16.5857 12.1289 15C12.1289 13.4143 13.4143 12.1289 15 12.1289C16.5857 12.1289 17.8711 13.4143 17.8711 15Z" fill="url(#paint0_linear_1_877)"/>
<path d="M21.7149 9.9203C21.5769 9.54631 21.3567 9.20779 21.0706 8.92993C20.7927 8.64383 20.4545 8.42365 20.0802 8.28563C19.7767 8.16776 19.3208 8.02745 18.481 7.98923C17.5726 7.9478 17.3002 7.93887 15.0004 7.93887C12.7004 7.93887 12.428 7.94757 11.5198 7.989C10.6801 8.02745 10.2239 8.16776 9.92062 8.28563C9.5464 8.42365 9.20789 8.64383 8.93025 8.92993C8.64415 9.20779 8.42397 9.54608 8.28572 9.9203C8.16785 10.2238 8.02754 10.68 7.98932 11.5197C7.94789 12.4279 7.93896 12.7003 7.93896 15.0003C7.93896 17.3001 7.94789 17.5725 7.98932 18.4809C8.02754 19.3207 8.16785 19.7766 8.28572 20.0801C8.42397 20.4544 8.64392 20.7927 8.93002 21.0705C9.20789 21.3566 9.54617 21.5768 9.9204 21.7148C10.2239 21.8329 10.6801 21.9732 11.5198 22.0114C12.428 22.0529 12.7002 22.0616 15.0002 22.0616C17.3005 22.0616 17.5728 22.0529 18.4808 22.0114C19.3206 21.9732 19.7767 21.8329 20.0802 21.7148C20.8314 21.4251 21.4251 20.8313 21.7149 20.0801C21.8328 19.7766 21.9731 19.3207 22.0115 18.4809C22.053 17.5725 22.0617 17.3001 22.0617 15.0003C22.0617 12.7003 22.053 12.4279 22.0115 11.5197C21.9733 10.68 21.833 10.2238 21.7149 9.9203ZM15.0004 19.423C12.5576 19.423 10.5773 17.443 10.5773 15.0001C10.5773 12.5573 12.5576 10.5772 15.0004 10.5772C17.4431 10.5772 19.4233 12.5573 19.4233 15.0001C19.4233 17.443 17.4431 19.423 15.0004 19.423ZM19.5982 11.436C19.0274 11.436 18.5646 10.9732 18.5646 10.4023C18.5646 9.8315 19.0274 9.3687 19.5982 9.3687C20.169 9.3687 20.6318 9.8315 20.6318 10.4023C20.6316 10.9732 20.169 11.436 19.5982 11.436Z" fill="url(#paint1_linear_1_877)"/>
<path d="M15 0C6.717 0 0 6.717 0 15C0 23.283 6.717 30 15 30C23.283 30 30 23.283 30 15C30 6.717 23.283 0 15 0ZM23.5613 18.5511C23.5197 19.468 23.3739 20.094 23.161 20.6419C22.7135 21.7989 21.7989 22.7135 20.6419 23.161C20.0942 23.3739 19.468 23.5194 18.5513 23.5613C17.6328 23.6032 17.3394 23.6133 15.0002 23.6133C12.6608 23.6133 12.3676 23.6032 11.4489 23.5613C10.5322 23.5194 9.90601 23.3739 9.35829 23.161C8.78334 22.9447 8.26286 22.6057 7.83257 22.1674C7.39449 21.7374 7.05551 21.2167 6.83922 20.6419C6.62636 20.0942 6.48056 19.468 6.4389 18.5513C6.39656 17.6326 6.38672 17.3392 6.38672 15C6.38672 12.6608 6.39656 12.3674 6.43867 11.4489C6.48033 10.532 6.6259 9.90601 6.83876 9.35806C7.05505 8.78334 7.39426 8.26263 7.83257 7.83257C8.26263 7.39426 8.78334 7.05528 9.35806 6.83899C9.90601 6.62613 10.532 6.48056 11.4489 6.43867C12.3674 6.39679 12.6608 6.38672 15 6.38672C17.3392 6.38672 17.6326 6.39679 18.5511 6.4389C19.468 6.48056 20.094 6.62613 20.6419 6.83876C21.2167 7.05505 21.7374 7.39426 22.1677 7.83257C22.6057 8.26286 22.9449 8.78334 23.161 9.35806C23.3741 9.90601 23.5197 10.532 23.5616 11.4489C23.6034 12.3674 23.6133 12.6608 23.6133 15C23.6133 17.3392 23.6034 17.6326 23.5613 18.5511Z" fill="url(#paint2_linear_1_877)"/>
</g>
<defs>
<linearGradient id="paint0_linear_1_877" x1="12.1454" y1="15.718" x2="17.8711" y2="15.718" gradientUnits="userSpaceOnUse">
<stop stop-color="#CA3192"/>
<stop offset="1" stop-color="#FF98A6"/>
</linearGradient>
<linearGradient id="paint1_linear_1_877" x1="7.97942" y1="16.7662" x2="22.0617" y2="16.7662" gradientUnits="userSpaceOnUse">
<stop stop-color="#CA3192"/>
<stop offset="1" stop-color="#FF98A6"/>
</linearGradient>
<linearGradient id="paint2_linear_1_877" x1="0.0859373" y1="18.7513" x2="30" y2="18.7513" gradientUnits="userSpaceOnUse">
<stop stop-color="#CA3192"/>
<stop offset="1" stop-color="#FF98A6"/>
</linearGradient>
<clipPath id="clip0_1_877">
<rect width="30" height="30" fill="white"/>
</clipPath>
</defs>
</svg>
