<svg width="64" height="64" viewBox="0 0 64 64" fill="none" xmlns="http://www.w3.org/2000/svg">
<g clip-path="url(#clip0_1_740)">
<path d="M46.6757 0H17.3242C7.77147 0 0 7.77147 0 17.3242V46.6762C0 56.2284 7.77147 63.9999 17.3242 63.9999H46.6762C56.2284 63.9999 63.9999 56.2284 63.9999 46.6762V17.3242C63.9999 7.77147 56.2284 0 46.6757 0V0ZM60.2479 46.6762C60.2479 54.1596 54.1596 60.2479 46.6757 60.2479H17.3242C9.84031 60.2479 3.75195 54.1596 3.75195 46.6762V17.3242C3.75195 9.84031 9.84031 3.75195 17.3242 3.75195H46.6762C54.1596 3.75195 60.2479 9.84031 60.2479 17.3242V46.6762Z" fill="url(#paint0_linear_1_740)"/>
<path d="M32.0001 14.5005C22.3507 14.5005 14.5006 22.3506 14.5006 32C14.5006 41.6494 22.3507 49.4994 32.0001 49.4994C41.6495 49.4994 49.4996 41.6494 49.4996 32C49.4996 22.3506 41.6495 14.5005 32.0001 14.5005ZM32.0001 45.7475C24.42 45.7475 18.2526 39.5805 18.2526 32C18.2526 24.4199 24.42 18.2524 32.0001 18.2524C39.5806 18.2524 45.7476 24.4199 45.7476 32C45.7476 39.5805 39.5806 45.7475 32.0001 45.7475Z" fill="url(#paint1_linear_1_740)"/>
<path d="M49.918 8.28564C47.0664 8.28564 44.7471 10.6055 44.7471 13.4565C44.7471 16.3081 47.0664 18.6279 49.918 18.6279C52.7695 18.6279 55.0893 16.3081 55.0893 13.4565C55.0893 10.605 52.7695 8.28564 49.918 8.28564ZM49.918 14.8755C49.1357 14.8755 48.499 14.2388 48.499 13.4565C48.499 12.6738 49.1357 12.0376 49.918 12.0376C50.7007 12.0376 51.3374 12.6738 51.3374 13.4565C51.3374 14.2388 50.7007 14.8755 49.918 14.8755Z" fill="url(#paint2_linear_1_740)"/>
</g>
<defs>
<linearGradient id="paint0_linear_1_740" x1="0" y1="31.9979" x2="63.9999" y2="31.9979" gradientUnits="userSpaceOnUse">
<stop stop-color="#9B4894"/>
<stop offset="0.51" stop-color="#E94D94"/>
<stop offset="1" stop-color="#F08B75"/>
</linearGradient>
<linearGradient id="paint1_linear_1_740" x1="14.5006" y1="31.9988" x2="49.4996" y2="31.9988" gradientUnits="userSpaceOnUse">
<stop stop-color="#9B4894"/>
<stop offset="0.51" stop-color="#E94D94"/>
<stop offset="1" stop-color="#F08B75"/>
</linearGradient>
<linearGradient id="paint2_linear_1_740" x1="44.7471" y1="13.4564" x2="55.0893" y2="13.4564" gradientUnits="userSpaceOnUse">
<stop stop-color="#9B4894"/>
<stop offset="0.51" stop-color="#E94D94"/>
<stop offset="1" stop-color="#F08B75"/>
</linearGradient>
<clipPath id="clip0_1_740">
<rect width="64" height="64" fill="white"/>
</clipPath>
</defs>
</svg>
