<svg width="30" height="30" viewBox="0 0 30 30" fill="none" xmlns="http://www.w3.org/2000/svg">
<g id="paint-can 1" clip-path="url(#clip0_1_215)">
<g id="Group">
<path id="Vector" d="M29.708 22.197C28.6754 20.1336 29.1419 13.5616 29.1419 13.5616C29.4036 4.12148 20.3329 6.127 17.95 6.81598L13.5214 2.55481L2.53425 13.6871L0.924849 15.2992C-0.205648 16.4279 -0.313356 18.1628 0.679166 19.1571L8.28821 26.767C8.74308 27.2228 9.35373 27.4453 9.99019 27.4453C10.7433 27.4453 11.5319 27.1338 12.1444 26.5222L13.5125 25.1523L13.5268 25.1647L24.8068 14.3298C25.6729 16.2472 25.2955 19.3698 25.2955 19.3698C25.2056 22.91 27.52 23.5927 27.52 23.5927C31.1794 25.2502 29.708 22.197 29.708 22.197ZM21.3316 15.4113L12.6019 23.7512C11.9396 24.3841 11.0388 24.5123 10.5884 24.0414C10.138 23.5687 10.3071 22.675 10.9694 22.0439L19.6982 13.7022C20.3605 13.0711 21.2622 12.942 21.7135 13.412C22.1631 13.8856 21.9921 14.7802 21.3316 15.4113Z" fill="white"/>
</g>
</g>
<defs>
<clipPath id="clip0_1_215">
<rect width="30" height="30" fill="white"/>
</clipPath>
</defs>
</svg>
